<svg width="256" height="256" viewBox="0 0 256 256" fill="none" xmlns="http://www.w3.org/2000/svg">
<path fill-rule="evenodd" clip-rule="evenodd" d="M256 92.8156C256 64.1987 232.815 41 204.214 41C191.758 41 180.329 45.4002 171.395 52.7318C156.567 61.0708 147.207 63.7971 128 63.9749C108.793 63.7971 99.4327 61.0708 84.6053 52.7318C75.6714 45.4002 64.2424 41 51.7863 41C23.1855 41 0 64.1987 0 92.8156V216H256V92.8156ZM204.214 61.5307C221.482 61.5307 235.481 75.5375 235.481 92.8156C235.481 110.094 221.482 124.101 204.214 124.101C186.945 124.101 172.947 110.094 172.947 92.8156C172.947 75.5375 186.945 61.5307 204.214 61.5307ZM51.7863 61.5307C34.5179 61.5307 20.5191 75.5375 20.5191 92.8156C20.5191 110.094 34.5179 124.101 51.7863 124.101C69.0546 124.101 83.0534 110.094 83.0534 92.8156C83.0534 75.5375 69.0546 61.5307 51.7863 61.5307Z" fill="url(#paint0_linear_64_26)"/>
<path fill-rule="evenodd" clip-rule="evenodd" d="M20.5191 92.8156C20.5191 75.5375 34.5179 61.5307 51.7863 61.5307C69.0546 61.5307 83.0534 75.5375 83.0534 92.8156C83.0534 110.094 69.0546 124.101 51.7863 124.101C34.5179 124.101 20.5191 110.094 20.5191 92.8156ZM51.7863 82.0614C45.8503 82.0614 41.0382 86.8763 41.0382 92.8156C41.0382 98.755 45.8503 103.57 51.7863 103.57C57.7223 103.57 62.5344 98.755 62.5344 92.8156C62.5344 86.8763 57.7223 82.0614 51.7863 82.0614Z" fill="#F9FAFB"/>
<path d="M41.0382 92.8156C41.0382 86.8763 45.8503 82.0614 51.7863 82.0614C57.7223 82.0614 62.5344 86.8763 62.5344 92.8156C62.5344 98.755 57.7223 103.57 51.7863 103.57C45.8503 103.57 41.0382 98.755 41.0382 92.8156Z" fill="url(#paint1_linear_64_26)"/>
<path d="M214.962 92.8156C214.962 86.8763 210.15 82.0614 204.214 82.0614C198.278 82.0614 193.466 86.8763 193.466 92.8156C193.466 98.755 198.278 103.57 204.214 103.57C210.15 103.57 214.962 98.755 214.962 92.8156Z" fill="url(#paint2_linear_64_26)"/>
<path fill-rule="evenodd" clip-rule="evenodd" d="M235.481 92.8156C235.481 75.5375 221.482 61.5307 204.214 61.5307C186.945 61.5307 172.947 75.5375 172.947 92.8156C172.947 110.094 186.945 124.101 204.214 124.101C221.482 124.101 235.481 110.094 235.481 92.8156ZM204.214 82.0614C210.15 82.0614 214.962 86.8763 214.962 92.8156C214.962 98.755 210.15 103.57 204.214 103.57C198.278 103.57 193.466 98.755 193.466 92.8156C193.466 86.8763 198.278 82.0614 204.214 82.0614Z" fill="#F9FAFB"/>
<defs>
<linearGradient id="paint0_linear_64_26" x1="0" y1="128.5" x2="256" y2="128.5" gradientUnits="userSpaceOnUse">
<stop stop-color="#3C84F6"/>
<stop offset="0.5" stop-color="#6DA3F8"/>
<stop offset="1" stop-color="#3C84F6"/>
</linearGradient>
<linearGradient id="paint1_linear_64_26" x1="0" y1="128.5" x2="256" y2="128.5" gradientUnits="userSpaceOnUse">
<stop stop-color="#3C84F6"/>
<stop offset="0.5" stop-color="#6DA3F8"/>
<stop offset="1" stop-color="#3C84F6"/>
</linearGradient>
<linearGradient id="paint2_linear_64_26" x1="0" y1="128.5" x2="256" y2="128.5" gradientUnits="userSpaceOnUse">
<stop stop-color="#3C84F6"/>
<stop offset="0.5" stop-color="#6DA3F8"/>
<stop offset="1" stop-color="#3C84F6"/>
</linearGradient>
</defs>
</svg>
